<?xml version="1.0" encoding="iso-8859-1"?>
<!-- Uploaded to: SVG Repo, www.svgrepo.com, Generator: SVG Repo Mixer Tools -->
<svg version="1.1" id="Layer_1" xmlns="http://www.w3.org/2000/svg" xmlns:xlink="http://www.w3.org/1999/xlink" 
	 viewBox="0 0 512.001 512.001" xml:space="preserve">
<g>
	<rect x="122.022" y="81.501" style="fill:#FF9C07;" width="37.616" height="103.684"/>
	<rect x="383.065" y="63.038" style="fill:#FF9C07;" width="37.616" height="103.684"/>
</g>
<path d="M221.737,297.218c-5.77,0-10.449,4.679-10.449,10.449v152.904c0,16.834-13.679,30.531-30.492,30.531
	c-16.711,0-30.307-13.696-30.307-30.531V195.676c0-0.016-0.002-0.03-0.002-0.046h9.145c5.771,0,10.449-4.678,10.449-10.449v-59.569
	c11.915,4.274,23.096,11.16,32.624,20.688c2.041,2.04,4.714,3.06,7.388,3.06c2.675,0,5.348-1.021,7.388-3.06
	c4.08-4.08,4.08-10.696,0-14.778c-13.648-13.647-30.032-22.924-47.401-27.848V91.95h2.699c5.77,0,10.449-4.679,10.449-10.449
	c0-5.77-4.679-10.449-10.449-10.449h-21.507v-42.84h9.84c5.77,0,10.449-4.679,10.449-10.449s-4.679-10.449-10.449-10.449h-40.575
	c-5.77,0-10.449,4.678-10.449,10.449s4.679,10.449,10.449,10.449h9.839v42.84h-21.506c-5.77,0-10.449,4.679-10.449,10.449
	c0,5.77,4.679,10.449,10.449,10.449h2.698v11.288c-17.951,4.802-34.912,14.229-48.969,28.286c-4.08,4.08-4.08,10.696,0,14.778
	c4.081,4.079,10.695,4.081,14.778,0c9.945-9.946,21.691-17.012,34.193-21.232v60.113c0,5.771,4.679,10.449,10.449,10.449h7.577
	c0,0.016-0.002,0.03-0.002,0.046v264.895c0,28.358,22.97,51.429,51.204,51.429c28.336,0,51.389-23.071,51.389-51.429V307.667
	C232.186,301.897,227.508,297.218,221.737,297.218z M132.467,91.95h16.718v7.936c-5.561-0.462-11.151-0.506-16.718-0.123V91.95z
	 M149.185,120.868v53.866h-16.718v-54.008C138.029,120.251,143.629,120.296,149.185,120.868z"/>
<path d="M292.068,178.839c-6.656-2.498-13.669-3.766-20.842-3.766h-0.002c-15.916,0-30.929,6.191-42.271,17.431
	c-11.39,11.288-17.664,26.273-17.664,42.193v4.929c0,5.771,4.679,10.449,10.449,10.449s10.449-4.678,10.449-10.449v-4.929
	c0-10.303,4.075-20.016,11.475-27.35c7.404-7.336,17.192-11.377,27.564-11.377c4.657,0,9.199,0.818,13.498,2.432
	c5.406,2.027,11.426-0.708,13.455-6.11C300.206,186.891,297.47,180.868,292.068,178.839z"/>
<path d="M221.737,258.629c-5.77,0-10.449,4.679-10.449,10.449v4.678c0,5.77,4.679,10.449,10.449,10.449
	c5.77,0,10.449-4.679,10.449-10.449v-4.678C232.186,263.307,227.508,258.629,221.737,258.629z"/>
<path d="M442.013,80.456h-10.886V63.041c0-5.77-4.679-10.449-10.449-10.449h-8.359V10.449C412.32,4.678,407.641,0,401.871,0
	s-10.449,4.678-10.449,10.449v42.143h-8.359c-5.77,0-10.449,4.679-10.449,10.449v17.415h-10.886c-5.77,0-10.449,4.679-10.449,10.449
	c0,5.77,4.679,10.449,10.449,10.449h10.886v65.369c0,5.77,4.679,10.449,10.449,10.449h8.359v283.4
	c0,16.835-13.679,30.531-30.493,30.531c-16.712,0-30.308-13.695-30.308-30.531V234.697c0-14.389-5.16-28.278-14.528-39.108
	c-3.774-4.366-10.372-4.844-14.737-1.067c-4.366,3.775-4.842,10.374-1.067,14.738c6.083,7.033,9.434,16.067,9.434,25.437v225.873
	c0,28.358,22.971,51.429,51.206,51.429c28.336,0,51.39-23.071,51.39-51.429V177.171h8.359c5.77,0,10.449-4.679,10.449-10.449
	v-65.369h10.886c5.77,0,10.449-4.679,10.449-10.449C452.462,85.135,447.783,80.456,442.013,80.456z M393.512,73.49h16.718v6.966
	h-16.718V73.49z M410.23,156.274h-16.718v-54.92h16.718V156.274z"/>
</svg>